# xmcd
#
# Track frame offsets:
# 150
# 15832
# 36044
# 53233
# 66550
# 81924
# 106926
# 123682
# 137902
# 154287
# 168404
# 185808
# 197528
# 217028
# 230351
#
# Disc length: 3270 seconds
#
#
# Revision: 0
# Processed by: cddbd v1.5.2PL0 Copyright (c) Steve Scherf et al.
# Submitted via: FreeRIP 2.96 
#
DISCID=d70cc40f
DTITLE=Victor e Leo - Acustico - Acustico
DYEAR=2006
DGENRE=sertanejo acustico 
TTITLE0=Sinto falta de você
TTITLE1=Quem de nós dois
TTITLE2=Fada
TTITLE3=Telefone mudo
TTITLE4=Jogo da vida
TTITLE5=Pout Porri
TTITLE6=O granfino e o caipira
TTITLE7=Vida boa
TTITLE8=Amigo apaixonado
TTITLE9=Arapuca
TTITLE10=Lembranças de Amor
TTITLE11=Chuva de prata
TTITLE12=Meu eu em você
TTITLE13=Cuidador do fogo
TTITLE14=Milongas para as missões
EXTD=
EXTT0=
EXTT1=
EXTT2=
EXTT3=
EXTT4=
EXTT5=
EXTT6=
EXTT7=
EXTT8=
EXTT9=
EXTT10=
EXTT11=
EXTT12=
EXTT13=
EXTT14=
PLAYORDER=
